<svg width="180" height="180" viewBox="0 0 180 180" fill="none" xmlns="http://www.w3.org/2000/svg">
  <!-- Isotipo MediaLab IA: transparent background for favicon/search results -->
  <g transform="translate(28, 56) scale(1.3)">
    <path d="M35.5239 1.48203C30.9462 -0.616123 25.5927 1.32661 23.4201 5.91148L0.842044 54.48C-1.25283 59.0647 0.686867 64.5045 5.26457 66.6026C6.50596 67.1464 7.82497 67.4574 9.14396 67.4574C12.5578 67.4574 15.8941 65.5146 17.3683 62.1732L39.9464 13.6047C42.0413 9.01985 40.1015 3.65791 35.5239 1.48203Z" fill="#008294"/>
    <path d="M104.968 51.9316L82.6874 6.28769C80.8241 2.40639 76.9427 0 72.6729 0H71.6638C67.4717 0 63.5901 2.40639 61.6493 6.21005L38.9032 51.854C35.1769 59.2284 40.6112 68 48.9177 68H49.4611C53.9638 68 58.0783 65.2831 59.786 61.0139L71.0427 33.2237C71.198 32.9133 71.5085 32.6803 71.8189 32.6803C72.1295 32.6803 72.5177 32.9133 72.5953 33.2237L84.6282 61.2466C86.4137 65.3608 90.4504 68 94.8754 68C103.182 68 108.539 59.3836 104.968 51.9316Z" fill="#F67327"/>
  </g>
</svg>
