<svg width="293" height="68" viewBox="0 0 293 68" fill="none" xmlns="http://www.w3.org/2000/svg">
<path d="M35.5239 1.48203C30.9462 -0.616123 25.5927 1.32661 23.4201 5.91148L0.842044 54.48C-1.25283 59.0647 0.686867 64.5045 5.26457 66.6026C6.50596 67.1464 7.82497 67.4574 9.14396 67.4574C12.5578 67.4574 15.8941 65.5146 17.3683 62.1732L39.9464 13.6047C42.0413 9.01985 40.1015 3.65791 35.5239 1.48203Z" fill="#008294"/>
<path d="M104.968 51.9316L82.6874 6.28769C80.8241 2.40639 76.9427 0 72.6729 0H71.6638C67.4717 0 63.5901 2.40639 61.6493 6.21005L38.9032 51.854C35.1769 59.2284 40.6112 68 48.9177 68H49.4611C53.9638 68 58.0783 65.2831 59.786 61.0139L71.0427 33.2237C71.198 32.9133 71.5085 32.6803 71.8189 32.6803C72.1295 32.6803 72.5177 32.9133 72.5953 33.2237L84.6282 61.2466C86.4137 65.3608 90.4504 68 94.8754 68C103.182 68 108.539 59.3836 104.968 51.9316Z" fill="#F67327"/>
<path d="M128.57 15.5574C128.25 14.986 127.384 15.1613 127.313 15.8119L125.368 33.4785C125.331 33.8194 125.043 34.0775 124.699 34.0775H122.396C121.993 34.0775 121.681 33.7271 121.727 33.3278L125.061 4.53322C125.136 3.88323 126.002 3.7126 126.319 4.2854L136.777 23.1997C137.033 23.6629 137.699 23.6629 137.956 23.1997L148.413 4.2854C148.73 3.7126 149.596 3.88323 149.671 4.53322L153.005 33.3278C153.052 33.7271 152.739 34.0775 152.336 34.0775H150.033C149.69 34.0775 149.402 33.8194 149.364 33.4785L147.419 15.8119C147.348 15.1613 146.482 14.986 146.162 15.5574L137.954 30.2298C137.697 30.689 137.035 30.689 136.778 30.2298L128.57 15.5574Z" fill="#008294"/>
<path d="M165.484 34.6821C163.646 34.6821 162.009 34.2517 160.573 33.391C159.165 32.5016 158.059 31.2823 157.255 29.7331C156.48 28.1838 156.092 26.3907 156.092 24.3537C156.092 22.2881 156.494 20.4806 157.298 18.9313C158.131 17.3821 159.28 16.1771 160.745 15.3164C162.238 14.4557 163.962 14.0254 165.915 14.0254C167.868 14.0254 169.534 14.4414 170.913 15.2734C172.32 16.0767 173.397 17.2386 174.144 18.7592C174.891 20.2798 175.264 22.0872 175.264 24.1816C175.264 24.3824 175.25 24.5976 175.221 24.8271C175.221 25.041 175.048 25.2144 174.834 25.2144H158.962C158.59 25.2144 158.289 24.9134 158.289 24.542V22.9605C158.289 22.5891 158.59 22.2881 158.962 22.2881H171.218C171.762 22.2881 172.082 22.8986 171.771 23.3445L171.128 24.2676C171.214 24.1242 171.301 23.909 171.387 23.6221C171.473 23.3065 171.516 23.0483 171.516 22.8475C171.516 21.6712 171.272 20.6527 170.784 19.792C170.324 18.9313 169.678 18.2571 168.845 17.7694C168.012 17.2817 167.035 17.0378 165.915 17.0378C164.594 17.0378 163.459 17.3247 162.511 17.8985C161.592 18.4436 160.874 19.2469 160.357 20.3085C159.869 21.3413 159.61 22.618 159.582 24.1385C159.582 25.6878 159.826 27.0075 160.314 28.0977C160.802 29.188 161.52 30.0199 162.468 30.5938C163.416 31.1676 164.565 31.4544 165.915 31.4544C167.265 31.4544 168.457 31.1676 169.491 30.5938C170.352 30.0922 171.103 29.3818 171.745 28.4626C171.962 28.1524 172.383 28.0489 172.704 28.2507L174.355 29.2908C174.667 29.488 174.764 29.9016 174.552 30.2048C173.582 31.5958 172.397 32.6723 170.999 33.434C169.448 34.2661 167.61 34.6821 165.484 34.6821Z" fill="#008294"/>
<path d="M194.931 1.24859C194.931 0.877223 195.233 0.576172 195.604 0.576172H197.705C198.077 0.576172 198.378 0.877223 198.378 1.24859V33.4708C198.378 33.8422 198.077 34.1432 197.705 34.1432H195.604C195.233 34.1432 194.931 33.8422 194.931 33.4708V1.24859ZM178.344 24.2453C178.344 22.0935 178.789 20.2574 179.679 18.7368C180.57 17.1876 181.762 15.997 183.255 15.1649C184.749 14.3329 186.386 13.9169 188.167 13.9169C189.833 13.9169 191.284 14.3329 192.519 15.1649C193.753 15.997 194.716 17.1876 195.405 18.7368C196.123 20.2574 196.482 22.0935 196.482 24.2453C196.482 26.3683 196.123 28.2045 195.405 29.7537C194.716 31.303 193.753 32.4936 192.519 33.3256C191.284 34.1576 189.833 34.5736 188.167 34.5736C186.386 34.5736 184.749 34.1576 183.255 33.3256C181.762 32.4936 180.57 31.303 179.679 29.7537C178.789 28.2045 178.344 26.3683 178.344 24.2453ZM181.834 24.2453C181.834 25.7658 182.135 27.0569 182.738 28.1184C183.37 29.1799 184.203 29.9832 185.237 30.5283C186.271 31.0734 187.391 31.346 188.598 31.346C189.603 31.346 190.594 31.0734 191.571 30.5283C192.547 29.9832 193.352 29.1799 193.983 28.1184C194.615 27.0569 194.931 25.7658 194.931 24.2453C194.931 22.7247 194.615 21.4336 193.983 20.3721C193.352 19.3106 192.547 18.5073 191.571 17.9622C190.594 17.4171 189.603 17.1445 188.598 17.1445C187.391 17.1445 186.271 17.4171 185.237 17.9622C184.203 18.5073 183.37 19.3106 182.738 20.3721C182.135 21.4336 181.834 22.7247 181.834 24.2453Z" fill="#008294"/>
<path d="M201.461 6.30441C201.461 5.64453 201.691 5.08508 202.15 4.62606C202.639 4.16703 203.199 3.9375 203.831 3.9375C204.491 3.9375 205.051 4.16703 205.511 4.62606C205.97 5.08508 206.2 5.64453 206.2 6.30441C206.2 6.93557 205.97 7.49502 205.511 7.98276C205.051 8.44179 204.491 8.67132 203.831 8.67132C203.199 8.67132 202.639 8.44179 202.15 7.98276C201.691 7.49502 201.461 6.93557 201.461 6.30441ZM202.107 15.1534C202.107 14.782 202.408 14.481 202.78 14.481H204.881C205.253 14.481 205.554 14.782 205.554 15.1534V33.6045C205.554 33.9759 205.253 34.277 204.881 34.277H202.78C202.408 34.277 202.107 33.9759 202.107 33.6045V15.1534Z" fill="#008294"/>
<path d="M212.771 28.1408C212.771 28.8867 212.943 29.5322 213.288 30.0773C213.661 30.6224 214.164 31.0385 214.796 31.3253C215.457 31.5836 216.203 31.7127 217.036 31.7127C218.099 31.7127 219.047 31.4975 219.88 31.0671C220.742 30.6368 221.417 30.0343 221.905 29.2597C221.955 29.1824 222.002 29.1041 222.047 29.0248C222.246 28.6742 223.254 28.6547 223.358 29.0439C223.366 29.0729 223.37 29.1029 223.37 29.1328C223.36 30.3749 222.973 31.407 222.207 32.2291C221.46 33.0611 220.526 33.6779 219.406 34.0796C218.314 34.4813 217.223 34.6821 216.132 34.6821C214.925 34.6821 213.791 34.4383 212.728 33.9505C211.694 33.434 210.861 32.7025 210.229 31.7557C209.597 30.8089 209.281 29.6613 209.281 28.3129C209.281 26.3907 209.956 24.8558 211.306 23.7082C212.685 22.5319 214.595 21.9438 217.036 21.9438C218.473 21.9438 219.665 22.1159 220.612 22.4602C221.589 22.7758 222.364 23.1487 222.939 23.5791C223.392 23.8959 223.729 24.1682 223.95 24.3957C224.054 24.5031 224.102 24.6501 224.102 24.7996V25.3151C224.102 25.8562 223.489 26.1828 223.011 25.9289C222.352 25.5793 221.682 25.3125 221 25.1283C219.938 24.8127 218.803 24.655 217.597 24.655C216.476 24.655 215.557 24.7984 214.839 25.0853C214.15 25.3722 213.633 25.7739 213.288 26.2903C212.943 26.8067 212.771 27.4235 212.771 28.1408ZM212.838 18.6256C212.514 18.83 212.077 18.7505 211.866 18.4308L210.928 17.0135C210.73 16.714 210.801 16.3103 211.106 16.119C211.782 15.6937 212.624 15.2684 213.633 14.843C214.954 14.298 216.534 14.0254 218.372 14.0254C219.923 14.0254 221.273 14.2692 222.422 14.757C223.6 15.216 224.505 15.8902 225.136 16.7796C225.797 17.669 226.127 18.7592 226.127 20.0502V33.5793C226.127 33.9507 225.826 34.2517 225.454 34.2517H223.354C222.982 34.2517 222.681 33.9507 222.681 33.5793V20.5236C222.681 19.8351 222.566 19.2756 222.336 18.8453C222.106 18.3863 221.776 18.0276 221.345 17.7694C220.943 17.5112 220.469 17.3247 219.923 17.21C219.377 17.0952 218.803 17.0378 218.2 17.0378C217.223 17.0378 216.333 17.1526 215.528 17.3821C214.753 17.6116 214.092 17.8842 213.547 18.1998C213.284 18.3517 213.048 18.4936 212.838 18.6256Z" fill="#008294"/>
<path d="M229.207 4.60992C229.207 4.23854 229.508 3.9375 229.88 3.9375H232.196C232.568 3.9375 232.869 4.23854 232.869 4.60992V29.9466C232.869 30.318 233.17 30.619 233.542 30.619H244.044C244.416 30.619 244.717 30.9201 244.717 31.2914V33.3894C244.717 33.7608 244.416 34.0618 244.044 34.0618H229.88C229.508 34.0618 229.207 33.7608 229.207 33.3894V4.60992Z" fill="#F67327"/>
<path d="M251.291 28.1408C251.291 28.8867 251.463 29.5322 251.808 30.0773C252.181 30.6224 252.684 31.0385 253.316 31.3253C253.976 31.5836 254.723 31.7127 255.556 31.7127C256.619 31.7127 257.566 31.4975 258.4 31.0671C259.261 30.6368 259.936 30.0343 260.425 29.2597C260.474 29.1824 260.521 29.1041 260.567 29.0248C260.765 28.6742 261.774 28.6547 261.878 29.0439C261.885 29.0729 261.889 29.1029 261.889 29.1328C261.88 30.3749 261.492 31.407 260.726 32.2291C259.979 33.0611 259.046 33.6779 257.926 34.0796C256.834 34.4813 255.743 34.6821 254.651 34.6821C253.445 34.6821 252.31 34.4383 251.248 33.9505C250.214 33.434 249.38 32.7025 248.749 31.7557C248.117 30.8089 247.801 29.6613 247.801 28.3129C247.801 26.3907 248.476 24.8558 249.826 23.7082C251.204 22.5319 253.115 21.9438 255.556 21.9438C256.992 21.9438 258.184 22.1159 259.132 22.4602C260.108 22.7758 260.884 23.1487 261.459 23.5791C261.912 23.8959 262.249 24.1682 262.47 24.3957C262.574 24.5031 262.622 24.6501 262.622 24.7996V25.3151C262.622 25.8562 262.009 26.1828 261.53 25.9289C260.872 25.5793 260.202 25.3125 259.52 25.1283C258.457 24.8127 257.322 24.655 256.116 24.655C254.996 24.655 254.077 24.7984 253.359 25.0853C252.669 25.3722 252.152 25.7739 251.808 26.2903C251.463 26.8067 251.291 27.4235 251.291 28.1408ZM251.358 18.6256C251.033 18.83 250.597 18.7505 250.385 18.4308L249.447 17.0135C249.249 16.714 249.321 16.3103 249.625 16.119C250.301 15.6937 251.144 15.2684 252.152 14.843C253.473 14.298 255.053 14.0254 256.892 14.0254C258.443 14.0254 259.793 14.2692 260.942 14.757C262.119 15.216 263.024 15.8902 263.656 16.7796C264.317 17.669 264.647 18.7592 264.647 20.0502V33.5793C264.647 33.9507 264.346 34.2517 263.974 34.2517H261.873C261.501 34.2517 261.2 33.9507 261.2 33.5793V20.5236C261.2 19.8351 261.085 19.2756 260.855 18.8453C260.625 18.3863 260.295 18.0276 259.864 17.7694C259.462 17.5112 258.988 17.3247 258.443 17.21C257.897 17.0952 257.322 17.0378 256.719 17.0378C255.743 17.0378 254.852 17.1526 254.048 17.3821C253.273 17.6116 252.612 17.8842 252.066 18.1998C251.804 18.3517 251.567 18.4936 251.358 18.6256Z" fill="#F67327"/>
<path d="M270.5 0.576172C270.872 0.576172 271.173 0.877223 271.173 1.24859V33.4708C271.173 33.8422 270.872 34.1432 270.5 34.1432H268.4C268.028 34.1432 267.727 33.8422 267.727 33.4708V1.24859C267.727 0.877223 268.028 0.576172 268.4 0.576172H270.5ZM287.761 24.2453C287.761 26.3683 287.316 28.2045 286.425 29.7537C285.535 31.303 284.343 32.4936 282.849 33.3256C281.384 34.1576 279.747 34.5736 277.938 34.5736C276.3 34.5736 274.85 34.1576 273.586 33.3256C272.351 32.4936 271.374 31.303 270.656 29.7537C269.967 28.2045 269.622 26.3683 269.622 24.2453C269.622 22.0935 269.967 20.2574 270.656 18.7368C271.374 17.1876 272.351 15.997 273.586 15.1649C274.85 14.3329 276.3 13.9169 277.938 13.9169C279.747 13.9169 281.384 14.3329 282.849 15.1649C284.343 15.997 285.535 17.1876 286.425 18.7368C287.316 20.2574 287.761 22.0935 287.761 24.2453ZM284.271 24.2453C284.271 22.7247 283.955 21.4336 283.323 20.3721C282.72 19.3106 281.901 18.5073 280.867 17.9622C279.862 17.4171 278.742 17.1445 277.507 17.1445C276.501 17.1445 275.51 17.4171 274.534 17.9622C273.557 18.5073 272.753 19.3106 272.121 20.3721C271.489 21.4336 271.173 22.7247 271.173 24.2453C271.173 25.7658 271.489 27.0569 272.121 28.1184C272.753 29.1799 273.557 29.9832 274.534 30.5283C275.51 31.0734 276.501 31.346 277.507 31.346C278.742 31.346 279.862 31.0734 280.867 30.5283C281.901 29.9832 282.72 29.1799 283.323 28.1184C283.955 27.0569 284.271 25.7658 284.271 24.2453Z" fill="#F67327"/>
<path d="M291.939 40.6437C292.31 40.6437 292.612 40.3428 292.612 39.9712C292.612 39.5997 292.31 39.2988 291.939 39.2988V40.6437ZM116.908 40.6437H291.939V39.2988H116.908V40.6437Z" fill="#008294"/>
<path d="M118.643 51.313C118.643 50.9415 118.944 50.6406 119.316 50.6406H119.8C120.172 50.6406 120.474 50.9415 120.474 51.313V65.0304C120.474 65.4019 120.172 65.7028 119.8 65.7028H119.316C118.944 65.7028 118.643 65.4019 118.643 65.0304V51.313Z" fill="#F67327"/>
<path d="M141.134 51.313C141.134 50.9415 141.435 50.6406 141.807 50.6406H142.292C142.664 50.6406 142.965 50.9415 142.965 51.313V64.7758C142.965 65.3827 142.224 65.6792 141.805 65.2398L132.708 55.7083C132.289 55.2689 131.548 55.5654 131.548 56.1723V65.0304C131.548 65.4019 131.246 65.7028 130.875 65.7028H130.39C130.018 65.7028 129.717 65.4019 129.717 65.0304V51.5676C129.717 50.9607 130.458 50.6642 130.877 51.1036L139.974 60.6351C140.393 61.0745 141.134 60.778 141.134 60.1711V51.313Z" fill="#F67327"/>
<path d="M160.747 59.6647C160.375 59.6647 160.074 59.3638 160.074 58.9923V58.6158C160.074 58.2443 160.375 57.9433 160.747 57.9433H166.402C166.773 57.9433 167.077 58.2446 167.053 58.6154C166.999 59.419 166.849 60.1922 166.601 60.9343C166.285 61.8666 165.819 62.6987 165.201 63.4303C164.583 64.1619 163.822 64.7428 162.917 65.1732C162.027 65.5891 161.007 65.7972 159.858 65.7972C158.767 65.7972 157.754 65.6106 156.821 65.2377C155.888 64.8504 155.076 64.3125 154.387 63.6239C153.697 62.9209 153.159 62.0962 152.771 61.1494C152.398 60.2027 152.211 59.1698 152.211 58.0509C152.211 56.932 152.398 55.8992 152.771 54.9524C153.159 54.0057 153.697 53.188 154.387 52.4995C155.076 51.7964 155.888 51.2585 156.821 50.8857C157.754 50.4983 158.767 50.3047 159.858 50.3047C160.792 50.3047 161.646 50.4267 162.422 50.6705C163.212 50.9142 163.915 51.273 164.533 51.7464C165.022 52.1125 165.45 52.5472 165.819 53.0505C166.009 53.3104 165.956 53.6678 165.718 53.885L165.448 54.1331C165.132 54.4222 164.631 54.3439 164.355 54.0168C163.946 53.5313 163.445 53.1329 162.853 52.8222C162.006 52.3633 161.007 52.1337 159.858 52.1337C158.796 52.1337 157.833 52.3848 156.972 52.8868C156.11 53.3887 155.421 54.0847 154.904 54.974C154.401 55.8491 154.15 56.8745 154.15 58.0509C154.15 59.2129 154.401 60.2386 154.904 61.1279C155.421 62.0172 156.11 62.7131 156.972 63.2151C157.833 63.7171 158.796 63.9682 159.858 63.9682C160.605 63.9682 161.273 63.8606 161.862 63.6455C162.465 63.4158 162.982 63.1005 163.413 62.6987C163.844 62.2969 164.195 61.838 164.468 61.3216C164.621 61.0469 164.752 60.7621 164.86 60.4669C165.008 60.0635 164.686 59.6647 164.256 59.6647H160.747Z" fill="#F67327"/>
<path d="M177.983 65.7028C177.611 65.7028 177.309 65.4019 177.309 65.0304V64.6538C177.309 64.2823 177.611 63.9814 177.983 63.9814H184.241C184.613 63.9814 184.914 64.2823 184.914 64.6538V65.0304C184.914 65.4019 184.612 65.7028 184.241 65.7028H177.983ZM177.983 52.362C177.611 52.362 177.309 52.0611 177.309 51.6896V51.313C177.309 50.9415 177.611 50.6406 177.983 50.6406H184.241C184.613 50.6406 184.914 50.9415 184.914 51.313V51.6896C184.914 52.0611 184.612 52.362 184.241 52.362H177.983ZM177.983 58.3869C177.611 58.3869 177.309 58.086 177.309 57.7145V57.3379C177.309 56.9664 177.611 56.6655 177.983 56.6655H183.81C184.182 56.6655 184.483 56.9664 184.483 57.3379V57.7145C184.483 58.086 184.182 58.3869 183.81 58.3869H177.983ZM176.297 51.313C176.297 50.9415 176.598 50.6406 176.97 50.6406H177.455C177.826 50.6406 178.128 50.9415 178.128 51.313V65.0304C178.128 65.4019 177.826 65.7028 177.455 65.7028H176.97C176.598 65.7028 176.297 65.4019 176.297 65.0304V51.313Z" fill="#F67327"/>
<path d="M205.578 51.313C205.578 50.9415 205.879 50.6406 206.251 50.6406H206.735C207.107 50.6406 207.409 50.9415 207.409 51.313V64.7758C207.409 65.3827 206.667 65.6792 206.248 65.2398L197.152 55.7083C196.733 55.2689 195.991 55.5654 195.991 56.1723V65.0304C195.991 65.4019 195.69 65.7028 195.318 65.7028H194.833C194.462 65.7028 194.16 65.4019 194.16 65.0304V51.5676C194.16 50.9607 194.902 50.6642 195.321 51.1036L204.417 60.6351C204.836 61.0745 205.578 60.778 205.578 60.1711V51.313Z" fill="#F67327"/>
<path d="M216.652 51.313C216.652 50.9415 216.954 50.6406 217.326 50.6406H217.81C218.182 50.6406 218.483 50.9415 218.483 51.313V65.0304C218.483 65.4019 218.182 65.7028 217.81 65.7028H217.326C216.954 65.7028 216.652 65.4019 216.652 65.0304V51.313Z" fill="#F67327"/>
<path d="M229.412 65.7028C229.04 65.7028 228.739 65.4019 228.739 65.0304V64.6538C228.739 64.2823 229.04 63.9814 229.412 63.9814H235.67C236.042 63.9814 236.343 64.2823 236.343 64.6538V65.0304C236.343 65.4019 236.042 65.7028 235.67 65.7028H229.412ZM229.412 52.362C229.04 52.362 228.739 52.0611 228.739 51.6896V51.313C228.739 50.9415 229.04 50.6406 229.412 50.6406H235.67C236.042 50.6406 236.343 50.9415 236.343 51.313V51.6896C236.343 52.0611 236.042 52.362 235.67 52.362H229.412ZM229.412 58.3869C229.04 58.3869 228.739 58.086 228.739 57.7145V57.3379C228.739 56.9664 229.04 56.6655 229.412 56.6655H235.239C235.611 56.6655 235.913 56.9664 235.913 57.3379V57.7145C235.913 58.086 235.611 58.3869 235.239 58.3869H229.412ZM227.727 51.313C227.727 50.9415 228.028 50.6406 228.4 50.6406H228.884C229.256 50.6406 229.558 50.9415 229.558 51.313V65.0304C229.558 65.4019 229.256 65.7028 228.884 65.7028H228.4C228.028 65.7028 227.727 65.4019 227.727 65.0304V51.313Z" fill="#F67327"/>
<path d="M249.015 59.3357C248.704 58.8898 249.024 58.2793 249.567 58.2793H249.982C250.198 58.2793 250.4 58.3825 250.527 58.557L254.937 64.6356C255.259 65.0805 254.941 65.7028 254.392 65.7028H253.801C253.58 65.7028 253.374 65.5952 253.248 65.4143L249.015 59.3357ZM245.586 51.313C245.586 50.9415 245.888 50.6406 246.259 50.6406H246.744C247.116 50.6406 247.417 50.9415 247.417 51.313V65.0304C247.417 65.4019 247.116 65.7028 246.744 65.7028H246.259C245.888 65.7028 245.586 65.4019 245.586 65.0304V51.313ZM247.272 52.2544C246.9 52.2544 246.598 51.9535 246.598 51.582V51.313C246.598 50.9415 246.9 50.6406 247.272 50.6406H249.679C250.656 50.6406 251.525 50.8272 252.286 51.2001C253.061 51.5588 253.672 52.0752 254.117 52.7493C254.576 53.4234 254.806 54.227 254.806 55.1593C254.806 56.0775 254.576 56.8807 254.117 57.5692C253.672 58.2433 253.061 58.7671 252.286 59.14C251.525 59.4987 250.656 59.6779 249.679 59.6779H247.272C246.9 59.6779 246.598 59.377 246.598 59.0055V58.7365C246.598 58.365 246.9 58.0641 247.272 58.0641H249.679C250.325 58.0641 250.893 57.9495 251.381 57.7198C251.884 57.4902 252.271 57.1604 252.544 56.73C252.832 56.2997 252.975 55.7762 252.975 55.1593C252.975 54.5423 252.832 54.0189 252.544 53.5885C252.271 53.1582 251.884 52.8283 251.381 52.5987C250.893 52.3691 250.325 52.2544 249.679 52.2544H247.272Z" fill="#F67327"/>
<path d="M265.117 51.3631C265.117 50.9916 265.419 50.6907 265.791 50.6907H266.275C266.647 50.6907 266.949 50.9916 266.949 51.3631V65.0804C266.949 65.4519 266.647 65.7529 266.275 65.7529H265.791C265.419 65.7529 265.117 65.4519 265.117 65.0804V51.3631ZM267.948 45.4845C268.367 45.7108 268.425 46.2881 268.059 46.5927L265.291 48.8964C265.086 49.0668 264.793 49.0809 264.573 48.931C264.271 48.7252 264.223 48.2979 264.474 48.0313L266.874 45.4741C267.083 45.2515 267.416 45.1974 267.685 45.3426L267.948 45.4845Z" fill="#F67327"/>
<path d="M281.213 61.283C280.744 61.283 280.418 60.8139 280.583 60.3745L280.725 59.998C280.823 59.7354 281.074 59.5616 281.355 59.5616H287.1C287.381 59.5616 287.632 59.7354 287.73 59.998L287.872 60.3745C288.037 60.8139 287.711 61.283 287.241 61.283H281.213ZM284.805 55.595C284.572 55.0493 283.798 55.0496 283.566 55.5956L281.642 60.121L281.47 60.5083L279.404 65.3911C279.298 65.6399 279.054 65.8016 278.784 65.8016H278.217C277.73 65.8016 277.405 65.3017 277.601 64.8572L283.569 51.3772C283.805 50.843 284.564 50.843 284.8 51.3772L290.767 64.8572C290.964 65.3017 290.639 65.8016 290.152 65.8016H289.585C289.314 65.8016 289.071 65.6406 288.965 65.3921L286.942 60.6374L286.769 60.2071L284.805 55.595Z" fill="#F67327"/>
</svg>
